<svg width="1342" height="489" viewBox="0 0 1342 489" fill="none" xmlns="http://www.w3.org/2000/svg">
<path d="M607.428 247.966C595.621 247.966 584.637 245.95 574.475 241.919C564.462 237.738 555.644 231.915 548.023 224.449C540.55 216.984 534.722 208.323 530.537 198.469C526.353 188.465 524.26 177.714 524.26 166.217C524.26 154.72 526.353 144.044 530.537 134.189C534.722 124.185 540.55 115.525 548.023 108.209C555.495 100.893 564.238 95.2188 574.25 91.1873C584.413 87.0066 595.397 84.9162 607.204 84.9162C619.757 84.9162 630.891 86.9319 640.605 90.9633C650.469 94.9948 659.062 100.519 666.385 107.537L642.847 131.278C638.662 126.798 633.581 123.29 627.603 120.751C621.775 118.213 614.975 116.944 607.204 116.944C600.329 116.944 593.977 118.138 588.149 120.527C582.47 122.767 577.538 126.052 573.354 130.382C569.319 134.712 566.106 139.938 563.714 146.06C561.473 152.182 560.352 158.901 560.352 166.217C560.352 173.683 561.473 180.476 563.714 186.598C566.106 192.72 569.319 197.946 573.354 202.276C577.538 206.606 582.47 209.966 588.149 212.355C593.977 214.744 600.329 215.938 607.204 215.938C615.274 215.938 622.298 214.669 628.276 212.131C634.254 209.593 639.409 206.084 643.743 201.604L667.505 225.345C659.884 232.363 651.141 237.887 641.278 241.919C631.563 245.95 620.28 247.966 607.428 247.966Z" fill="#514292"/>
<path d="M701.681 245.502V82.9005H735.979V245.502H701.681Z" fill="#514292"/>
<path d="M830.521 247.966C819.313 247.966 809.15 245.502 800.034 240.575C791.067 235.498 783.969 228.63 778.738 219.97C773.507 211.31 770.892 201.604 770.892 190.854C770.892 180.103 773.507 170.473 778.738 161.962C783.969 153.451 791.067 146.732 800.034 141.804C809.001 136.728 819.163 134.189 830.521 134.189C841.879 134.189 852.042 136.653 861.009 141.58C869.975 146.508 877.074 153.302 882.305 161.962C887.535 170.473 890.151 180.103 890.151 190.854C890.151 201.604 887.535 211.31 882.305 219.97C877.074 228.63 869.975 235.498 861.009 240.575C852.042 245.502 841.879 247.966 830.521 247.966ZM830.521 216.834C835.453 216.834 839.787 215.789 843.523 213.699C847.259 211.459 850.099 208.398 852.042 204.516C854.134 200.484 855.18 195.93 855.18 190.854C855.18 185.777 854.134 181.372 852.042 177.64C849.949 173.757 847.035 170.771 843.299 168.681C839.712 166.441 835.453 165.321 830.521 165.321C825.739 165.321 821.48 166.441 817.744 168.681C814.007 170.771 811.093 173.757 809.001 177.64C806.909 181.522 805.863 186.001 805.863 191.078C805.863 196.005 806.909 200.484 809.001 204.516C811.093 208.398 814.007 211.459 817.744 213.699C821.48 215.789 825.739 216.834 830.521 216.834Z" fill="#514292"/>
<path d="M949.647 245.502L911.986 136.653H945.612L968.926 215.714L959.062 215.938L984.842 136.653H1012.64L1038.64 215.938L1028.56 215.714L1052.09 136.653H1085.72L1048.06 245.502H1020.04L994.705 170.249H1003.22L977.444 245.502H949.647Z" fill="#514292"/>
<path d="M1168.53 247.966C1156.72 247.966 1146.18 245.577 1136.92 240.799C1127.8 235.872 1120.63 229.078 1115.4 220.418C1110.17 211.758 1107.55 201.978 1107.55 191.078C1107.55 180.178 1110.09 170.473 1115.17 161.962C1120.4 153.302 1127.43 146.508 1136.24 141.58C1145.06 136.653 1155 134.189 1166.06 134.189C1176.82 134.189 1186.31 136.504 1194.53 141.132C1202.75 145.761 1209.17 152.182 1213.81 160.394C1218.59 168.606 1220.98 178.013 1220.98 188.614C1220.98 190.555 1220.83 192.645 1220.53 194.885C1220.38 196.976 1220.01 199.439 1219.41 202.276L1125.48 202.5V178.983L1204.84 178.759L1190.05 188.614C1189.9 182.343 1188.92 177.192 1187.13 173.16C1185.34 168.979 1182.65 165.844 1179.06 163.753C1175.62 161.514 1171.36 160.394 1166.28 160.394C1160.9 160.394 1156.2 161.663 1152.16 164.201C1148.28 166.59 1145.21 170.025 1142.97 174.504C1140.88 178.983 1139.83 184.433 1139.83 190.854C1139.83 197.274 1140.95 202.799 1143.19 207.427C1145.59 211.907 1148.87 215.416 1153.06 217.954C1157.39 220.343 1162.47 221.538 1168.3 221.538C1173.68 221.538 1178.54 220.642 1182.87 218.85C1187.21 216.909 1191.02 214.072 1194.3 210.339L1213.14 229.153C1207.76 235.424 1201.25 240.127 1193.63 243.263C1186.01 246.398 1177.64 247.966 1168.53 247.966Z" fill="#514292"/>
<path d="M1255.47 245.502V136.653H1289.77V245.502H1255.47ZM1289.77 185.702L1275.42 174.504C1278.26 161.812 1283.04 151.958 1289.77 144.94C1296.49 137.922 1305.83 134.413 1317.79 134.413C1323.02 134.413 1327.58 135.235 1331.46 136.877C1335.5 138.37 1339.01 140.759 1342 144.044L1321.6 169.801C1320.11 168.158 1318.24 166.889 1316 165.993C1313.75 165.097 1311.21 164.649 1308.37 164.649C1302.7 164.649 1298.14 166.441 1294.7 170.025C1291.41 173.459 1289.77 178.685 1289.77 185.702Z" fill="#514292"/>
<path d="M281.256 60.1004C288.691 58.072 297.251 57.6634 305.41 61.5515L306.199 61.941C319.487 68.7529 327.379 79.1894 330.547 91.4232C333.621 103.294 332.07 116.088 328.192 127.969C320.747 150.78 303.695 173.338 285.911 185.306L284.189 186.43L283.767 186.683C279.388 189.151 273.795 187.78 271.075 183.489C268.355 179.196 269.51 173.559 273.616 170.66L274.022 170.386L275.37 169.503C289.341 160.073 303.897 141.146 310.12 122.081C313.297 112.348 314.023 103.423 312.148 96.1801C310.366 89.2996 306.082 83.2255 297.524 78.838L296.981 78.576C294.22 77.3511 290.74 77.1978 286.266 78.4184C281.433 79.7368 276.216 82.4718 271.175 85.8736C266.2 89.231 261.792 92.968 258.599 95.9019C257.015 97.3579 255.756 98.5906 254.908 99.4464C254.484 99.8737 254.165 100.206 253.959 100.422C253.856 100.53 253.78 100.609 253.736 100.656C253.715 100.679 253.699 100.693 253.692 100.7C251.868 102.672 249.29 103.785 246.604 103.756C243.918 103.726 241.369 102.564 239.59 100.554C239.585 100.549 239.571 100.532 239.562 100.522C239.53 100.486 239.472 100.423 239.392 100.337C239.232 100.162 238.979 99.8886 238.641 99.5344C237.962 98.8243 236.948 97.7952 235.664 96.5811C233.071 94.1294 229.492 91.0343 225.432 88.296C216.702 82.409 209.498 80.5859 204.554 82.8994L204.083 83.1358C195.09 87.9741 191.452 94.2118 190.475 101.405C189.403 109.294 191.448 119.244 196.159 130.778C201.671 144.27 210.099 158.293 218.714 171.395C222.403 177.004 226.126 182.446 229.668 187.603L230.169 188.083C230.654 188.584 231.09 189.147 231.466 189.768C232.302 191.149 233.141 192.516 233.975 193.874L236.467 197.532C236.922 198.204 237.282 198.913 237.545 199.644L237.84 200.119C238.021 200.408 238.203 200.698 238.383 200.986C240.516 204.396 242.63 207.74 244.708 211.028C256.122 229.088 266.475 245.469 273.228 261.891C273.506 262.565 273.777 263.241 274.043 263.917C282.814 286.215 285.274 309.353 277.477 339.069L276.665 342.055C268.563 370.859 257.209 394.295 239.418 411.024C221.995 427.407 199.323 436.502 170.038 438.946L167.182 439.162C165.767 439.258 164.366 439.338 162.98 439.403L160.843 439.491C155.884 439.67 151.119 439.655 146.551 439.477C140.142 439.227 134.119 438.657 128.495 437.855C128.463 437.85 128.428 437.845 128.397 437.841C128.365 437.836 128.332 437.831 128.3 437.827C108.627 435.02 96.719 431.562 82.7813 423.865C81.0915 423.001 79.586 422.178 78.2684 421.421C76.1414 420.2 74.4988 419.149 73.3519 418.375C72.7789 417.989 72.3296 417.67 72.0038 417.434L71.9829 417.42C71.9752 417.415 71.9673 417.409 71.9597 417.404C71.879 417.345 71.8039 417.289 71.7393 417.242C71.6904 417.206 71.6462 417.174 71.607 417.144C71.5738 417.119 71.543 417.097 71.5165 417.077C71.5031 417.067 71.4911 417.056 71.4794 417.047L71.4052 416.991C71.2442 416.867 71.0803 416.732 70.9295 416.6C70.9222 416.593 70.9159 416.585 70.9086 416.579C70.6276 416.33 70.3623 416.069 70.1174 415.795C69.9718 415.632 69.8325 415.465 69.6998 415.294C67.1061 411.954 66.9902 407.162 69.6998 403.664C70.8914 402.126 72.4615 401.053 74.1779 400.477C74.5408 400.355 74.9108 400.255 75.2846 400.178C75.5912 400.114 75.9016 400.067 76.2127 400.034C76.2334 400.032 76.2547 400.029 76.2753 400.027C76.493 400.005 76.7131 399.992 76.932 399.985L77.0271 399.983C77.0454 399.983 77.0645 399.983 77.0828 399.983C78.0923 399.968 79.1073 400.113 80.0875 400.423C80.3897 400.519 80.6888 400.63 80.9831 400.757C81.0227 400.774 81.062 400.793 81.1014 400.811C81.3936 400.942 81.6829 401.088 81.9646 401.251C82.3251 401.459 82.6768 401.693 83.0156 401.953C83.0278 401.962 83.0489 401.98 83.069 401.995C83.0924 402.012 83.1228 402.033 83.1572 402.058C83.1691 402.066 83.1817 402.076 83.1949 402.085C83.2565 402.13 83.3323 402.185 83.4217 402.248C83.5711 402.353 83.7603 402.484 83.9878 402.637C84.7761 403.169 87.7396 404.955 87.7396 404.955C87.7396 404.955 96.395 409.58 103.38 412.151C109.024 414.228 115.823 416.252 123.745 417.8C135.397 420.078 149.482 421.329 165.897 420.216L168.442 420.023C194.495 417.853 212.785 409.987 226.39 397.194C226.826 396.784 227.258 396.367 227.687 395.945C227.888 395.747 228.086 395.547 228.285 395.347C228.417 395.214 228.551 395.082 228.682 394.948C232.758 390.787 236.477 386.067 239.889 380.761C240.401 379.964 240.91 379.155 241.409 378.331L242.669 376.194C248.896 365.372 254.025 352.351 258.367 336.915L259.075 334.317C266.076 307.691 263.52 288.256 255.646 269.107C249.561 254.311 240.523 240.009 229.527 222.607C226.798 218.29 223.948 213.782 220.993 209.028L218.004 204.19C217.135 202.922 216.238 201.618 215.318 200.281C211.521 194.765 207.332 188.68 203.097 182.241C193.997 168.407 184.681 152.937 178.561 137.953C173.344 125.183 169.915 111.567 171.642 98.8529C173.463 85.4435 180.901 74.0365 195.071 66.4127L195.791 66.0395C210.907 58.416 226.73 66.2606 236.065 72.5558C240.235 75.368 243.895 78.3963 246.768 80.9846C250.321 77.7836 255.082 73.8164 260.537 70.1357C266.474 66.1293 273.642 62.1783 281.256 60.1004Z" fill="#514292"/>
<path d="M131.156 175.649C155.171 175.662 181.919 184.881 198.814 198.072L200.417 199.361L200.786 199.683C203.207 201.903 204.228 205.124 203.74 208.182C203.481 209.801 202.798 211.375 201.675 212.73C198.431 216.642 192.706 217.292 188.677 214.288L188.294 213.986L187.036 212.978C173.737 202.623 151.216 194.652 131.144 194.641C120.897 194.636 112.179 196.707 105.865 200.731C99.8683 204.553 95.4129 210.504 93.8859 219.993L93.807 220.591C93.4956 223.592 94.4254 226.945 96.9718 230.818C99.7222 235.001 103.94 239.111 108.738 242.847C113.473 246.535 118.396 249.566 122.177 251.691C124.052 252.745 125.615 253.56 126.692 254.102C127.229 254.372 127.645 254.571 127.914 254.7L128.262 254.867C130.646 255.962 132.474 257.996 133.307 260.481C134.14 262.97 133.908 265.692 132.662 268.001C132.657 268.01 132.647 268.025 132.636 268.045C132.611 268.094 132.569 268.175 132.511 268.287C132.393 268.512 132.211 268.865 131.98 269.33C131.515 270.26 130.848 271.64 130.07 273.368C128.506 276.842 126.537 281.641 124.875 286.989C123.201 292.376 121.92 298.058 121.58 303.356C121.258 308.38 121.822 312.476 123.167 315.561L123.446 316.166C127.328 324.065 132.837 327.113 139.376 327.566C146.652 328.07 156.089 325.335 166.375 319.195C186.987 306.89 206.686 283.527 213.106 260.613C214.523 255.565 219.766 252.619 224.819 254.032C229.873 255.446 232.823 260.687 231.408 265.737C223.474 294.051 200.227 321.107 176.122 335.497C164.049 342.704 150.682 347.386 138.063 346.513C124.709 345.588 113.228 338.464 106.383 324.534L105.754 323.178C102.77 316.357 102.178 308.928 102.612 302.143C103.08 294.844 104.781 287.602 106.721 281.359C108.353 276.108 110.217 271.377 111.824 267.654C107.649 265.261 102.322 261.927 97.053 257.825C91.4021 253.424 85.4198 247.839 81.0852 241.248C76.8536 234.812 73.817 226.805 74.9923 217.851L75.1199 216.981C77.4903 202.249 84.9816 191.518 95.6447 184.722C105.991 178.127 118.649 175.642 131.156 175.649Z" fill="#514292"/>
<path d="M367.982 159.206C381.915 157.29 396.049 158.203 407.322 163.937C419.251 170.006 427.028 181.047 427.877 196.542L427.925 198.035C428.002 205.479 425.64 212.548 422.584 218.622C419.296 225.158 414.897 231.159 410.667 236.148C407.111 240.342 403.543 243.968 400.607 246.767C403.512 250.6 407.111 255.75 410.354 261.585C413.833 267.843 417.151 275.321 418.561 283.081C419.937 290.657 419.598 299.212 415.011 306.995L414.554 307.746C406.606 320.379 395.512 327.327 383.038 329.416C370.934 331.443 358.312 328.785 346.803 323.892C324.705 314.497 303.696 295.564 293.31 276.822L292.338 275.009L292.124 274.569C291.483 273.158 291.215 271.664 291.284 270.204C291.44 266.93 293.289 263.827 296.412 262.213C300.929 259.879 306.453 261.517 308.985 265.857L309.22 266.284L309.983 267.705C318.171 282.431 335.777 298.566 354.246 306.418C363.675 310.426 372.511 311.925 379.896 310.688C386.912 309.513 393.341 305.778 398.461 297.641L398.767 297.122C400.228 294.481 400.685 291.032 399.857 286.472C398.963 281.548 396.69 276.117 393.737 270.804C390.822 265.56 387.479 260.847 384.832 257.414C383.517 255.711 382.398 254.351 381.618 253.432C381.229 252.973 380.924 252.626 380.727 252.403C380.629 252.291 380.557 252.21 380.514 252.161C380.492 252.138 380.479 252.121 380.472 252.113C378.706 250.173 377.82 247.589 378.026 244.975C378.233 242.359 379.513 239.945 381.565 238.306C381.572 238.3 381.586 238.29 381.604 238.276C381.647 238.241 381.718 238.182 381.815 238.102C382.012 237.94 382.316 237.688 382.711 237.351C383.503 236.676 384.657 235.666 386.05 234.379C388.849 231.793 392.54 228.146 396.164 223.873C399.813 219.569 403.214 214.839 405.6 210.096C407.863 205.597 408.949 201.609 408.918 198.244L408.897 197.578C408.416 188.791 404.539 183.832 398.697 180.86C392.198 177.554 382.443 176.385 370.574 178.018C346.786 181.29 319.513 195.096 304.635 213.676C301.356 217.77 295.376 218.432 291.277 215.157C287.179 211.881 286.516 205.906 289.795 201.811C308.18 178.851 340.164 163.032 367.982 159.206Z" fill="#514292"/>
<path d="M489.439 244.5C489.439 109.467 379.874 0.000440452 244.72 0C109.565 0 0 109.466 0 244.5C0.000111119 303.406 20.85 357.446 55.5789 399.656C55.6722 399.451 55.7693 399.247 55.8689 399.044C56.5666 397.623 57.4179 396.249 58.4258 394.948L59.1984 394C62.095 390.628 65.7576 388.257 69.7276 386.946C38.0207 348.111 19.0075 298.524 19.0074 244.5C19.0074 119.954 120.062 18.9903 244.72 18.9903C369.377 18.9907 470.432 119.955 470.432 244.5C470.432 369.045 369.377 470.009 244.72 470.01C214.92 470.01 186.467 464.239 160.423 453.757C147.922 454.152 136.52 453.398 126.267 451.923L123.752 451.543C119.037 450.798 114.579 449.903 110.385 448.903C148.946 474.251 195.11 489 244.72 489C379.874 489 489.439 379.533 489.439 244.5Z" fill="#514292"/>
<path d="M69.6998 403.664C70.8914 402.126 72.4615 401.053 74.1779 400.477C74.5408 400.355 74.9108 400.255 75.2846 400.178C75.5912 400.114 75.9016 400.067 76.2127 400.034C76.2334 400.032 76.2547 400.029 76.2753 400.027C76.493 400.005 76.7131 399.992 76.932 399.985L77.0271 399.983C77.0454 399.983 77.0645 399.983 77.0828 399.983C78.0923 399.968 79.1073 400.113 80.0875 400.423C80.3897 400.519 80.6888 400.63 80.9831 400.757C81.0227 400.774 81.062 400.793 81.1014 400.811C81.3936 400.942 81.6829 401.088 81.9646 401.251C82.3251 401.459 82.6768 401.693 83.0156 401.953C83.0278 401.962 83.0489 401.98 83.069 401.995C83.0924 402.012 83.1228 402.033 83.1572 402.058L83.1949 402.085C83.2565 402.13 83.3323 402.185 83.4217 402.248C83.5711 402.353 83.7603 402.484 83.9878 402.637C84.7761 403.169 87.7396 404.955 87.7396 404.955C87.7396 404.955 81.1913 399.55 77.5349 395.799C74.1603 392.338 69.7276 386.946 69.7276 386.946C65.7576 388.257 62.095 390.628 59.1984 394L58.4258 394.948C57.4179 396.249 56.5666 397.623 55.8689 399.044C55.7693 399.247 55.6722 399.451 55.5789 399.656L69.6998 415.294C67.1061 411.954 66.9902 407.162 69.6998 403.664Z" fill="#514292"/>
<path d="M562 412.65C553.3 412.65 545.8 411.25 539.5 408.45C533.3 405.55 527.6 401.2 522.4 395.4L537.7 380.25C541.1 384.15 544.85 387.2 548.95 389.4C553.15 391.5 558 392.55 563.5 392.55C568.5 392.55 572.35 391.65 575.05 389.85C577.85 388.05 579.25 385.55 579.25 382.35C579.25 379.45 578.35 377.1 576.55 375.3C574.75 373.5 572.35 371.95 569.35 370.65C566.45 369.35 563.2 368.1 559.6 366.9C556.1 365.7 552.6 364.35 549.1 362.85C545.6 361.25 542.35 359.3 539.35 357C536.45 354.6 534.1 351.65 532.3 348.15C530.5 344.55 529.6 340.05 529.6 334.65C529.6 328.15 531.15 322.55 534.25 317.85C537.45 313.15 541.85 309.6 547.45 307.2C553.05 304.7 559.5 303.45 566.8 303.45C574.2 303.45 580.95 304.75 587.05 307.35C593.25 309.95 598.35 313.5 602.35 318L587.05 333.15C583.85 329.85 580.6 327.4 577.3 325.8C574.1 324.2 570.45 323.4 566.35 323.4C562.25 323.4 559 324.2 556.6 325.8C554.2 327.3 553 329.5 553 332.4C553 335.1 553.9 337.3 555.7 339C557.5 340.6 559.85 342 562.75 343.2C565.75 344.4 569 345.6 572.5 346.8C576.1 348 579.65 349.4 583.15 351C586.65 352.6 589.85 354.65 592.75 357.15C595.75 359.55 598.15 362.65 599.95 366.45C601.75 370.15 602.65 374.75 602.65 380.25C602.65 390.35 599.05 398.3 591.85 404.1C584.65 409.8 574.7 412.65 562 412.65Z" fill="#514292"/>
<path d="M637.901 411V307.95H660.851V411H637.901ZM621.401 357.6V338.1H677.351V357.6H621.401Z" fill="#514292"/>
<path d="M731.863 412.65C725.163 412.65 719.213 411.3 714.013 408.6C708.913 405.8 704.913 402 702.013 397.2C699.113 392.3 697.663 386.7 697.663 380.4V338.1H720.613V380.1C720.613 382.6 721.013 384.75 721.813 386.55C722.713 388.35 724.013 389.75 725.713 390.75C727.413 391.75 729.463 392.25 731.863 392.25C735.263 392.25 737.963 391.2 739.963 389.1C741.963 386.9 742.963 383.9 742.963 380.1V338.1H765.913V380.25C765.913 386.65 764.463 392.3 761.563 397.2C758.663 402 754.663 405.8 749.563 408.6C744.463 411.3 738.563 412.65 731.863 412.65Z" fill="#514292"/>
<path d="M823.373 412.5C816.473 412.5 810.323 410.85 804.923 407.55C799.623 404.25 795.423 399.75 792.323 394.05C789.323 388.35 787.823 381.85 787.823 374.55C787.823 367.25 789.323 360.75 792.323 355.05C795.423 349.35 799.623 344.85 804.923 341.55C810.323 338.25 816.473 336.6 823.373 336.6C828.373 336.6 832.873 337.55 836.873 339.45C840.973 341.35 844.323 344 846.923 347.4C849.623 350.7 851.123 354.5 851.423 358.8V389.55C851.123 393.85 849.673 397.75 847.073 401.25C844.473 404.65 841.123 407.4 837.023 409.5C832.923 411.5 828.373 412.5 823.373 412.5ZM827.423 391.8C830.723 391.8 833.573 391.1 835.973 389.7C838.373 388.2 840.273 386.15 841.673 383.55C843.073 380.95 843.773 377.95 843.773 374.55C843.773 371.15 843.073 368.2 841.673 365.7C840.373 363.1 838.473 361.05 835.973 359.55C833.573 358.05 830.773 357.3 827.573 357.3C824.373 357.3 821.523 358.05 819.023 359.55C816.623 361.05 814.673 363.1 813.173 365.7C811.773 368.3 811.073 371.25 811.073 374.55C811.073 377.85 811.773 380.8 813.173 383.4C814.573 386 816.523 388.05 819.023 389.55C821.523 391.05 824.323 391.8 827.423 391.8ZM865.373 411H842.873V391.35L846.323 373.65L842.423 355.95V302.1H865.373V411Z" fill="#514292"/>
<path d="M893.532 411V338.1H916.482V411H893.532ZM905.082 328.05C901.482 328.05 898.482 326.85 896.082 324.45C893.782 321.95 892.632 318.95 892.632 315.45C892.632 311.85 893.782 308.85 896.082 306.45C898.482 304.05 901.482 302.85 905.082 302.85C908.682 302.85 911.632 304.05 913.932 306.45C916.232 308.85 917.382 311.85 917.382 315.45C917.382 318.95 916.232 321.95 913.932 324.45C911.632 326.85 908.682 328.05 905.082 328.05Z" fill="#514292"/>
<path d="M979.743 412.65C972.243 412.65 965.443 411 959.343 407.7C953.343 404.3 948.593 399.7 945.093 393.9C941.593 388.1 939.843 381.6 939.843 374.4C939.843 367.2 941.593 360.75 945.093 355.05C948.593 349.35 953.343 344.85 959.343 341.55C965.343 338.15 972.143 336.45 979.743 336.45C987.343 336.45 994.143 338.1 1000.14 341.4C1006.14 344.7 1010.89 349.25 1014.39 355.05C1017.89 360.75 1019.64 367.2 1019.64 374.4C1019.64 381.6 1017.89 388.1 1014.39 393.9C1010.89 399.7 1006.14 404.3 1000.14 407.7C994.143 411 987.343 412.65 979.743 412.65ZM979.743 391.8C983.043 391.8 985.943 391.1 988.443 389.7C990.943 388.2 992.843 386.15 994.143 383.55C995.543 380.85 996.243 377.8 996.243 374.4C996.243 371 995.543 368.05 994.143 365.55C992.743 362.95 990.793 360.95 988.293 359.55C985.893 358.05 983.043 357.3 979.743 357.3C976.543 357.3 973.693 358.05 971.193 359.55C968.693 360.95 966.743 362.95 965.343 365.55C963.943 368.15 963.243 371.15 963.243 374.55C963.243 377.85 963.943 380.85 965.343 383.55C966.743 386.15 968.693 388.2 971.193 389.7C973.693 391.1 976.543 391.8 979.743 391.8Z" fill="#514292"/>
</svg>
